<svg width="1280" height="356" viewBox="0 0 1280 356" fill="none" xmlns="http://www.w3.org/2000/svg">
<rect width="1280" height="356" fill="black"/>
<path d="M516.196 269.324C514.828 269.324 513.46 269.276 512.092 269.18C510.748 269.108 509.344 268.916 507.88 268.604V244.412C509.032 244.196 510.292 244.04 511.66 243.944C513.028 243.824 514.3 243.764 515.476 243.764C517.06 243.764 518.512 243.884 519.832 244.124C521.176 244.34 522.328 244.724 523.288 245.276C524.248 245.828 524.992 246.56 525.52 247.472C526.072 248.36 526.348 249.464 526.348 250.784C526.348 252.776 525.388 254.348 523.468 255.5C525.052 256.1 526.132 256.916 526.708 257.948C527.284 258.98 527.572 260.144 527.572 261.44C527.572 264.056 526.612 266.024 524.692 267.344C522.796 268.664 519.964 269.324 516.196 269.324ZM513.352 258.128V264.572C513.76 264.62 514.204 264.656 514.684 264.68C515.164 264.704 515.692 264.716 516.268 264.716C517.948 264.716 519.304 264.476 520.336 263.996C521.368 263.516 521.884 262.628 521.884 261.332C521.884 260.18 521.452 259.364 520.588 258.884C519.724 258.38 518.488 258.128 516.88 258.128H513.352ZM513.352 253.844H516.088C517.816 253.844 519.052 253.628 519.796 253.196C520.54 252.74 520.912 252.02 520.912 251.036C520.912 250.028 520.528 249.32 519.76 248.912C518.992 248.504 517.864 248.3 516.376 248.3C515.896 248.3 515.38 248.312 514.828 248.336C514.276 248.336 513.784 248.36 513.352 248.408V253.844ZM538.944 265.256C539.472 265.256 539.976 265.244 540.456 265.22C540.936 265.196 541.32 265.16 541.608 265.112V261.044C541.392 260.996 541.068 260.948 540.636 260.9C540.204 260.852 539.808 260.828 539.448 260.828C538.944 260.828 538.464 260.864 538.008 260.936C537.576 260.984 537.192 261.092 536.856 261.26C536.52 261.428 536.256 261.656 536.064 261.944C535.872 262.232 535.776 262.592 535.776 263.024C535.776 263.864 536.052 264.452 536.604 264.788C537.18 265.1 537.96 265.256 538.944 265.256ZM538.512 249.56C540.096 249.56 541.416 249.74 542.472 250.1C543.528 250.46 544.368 250.976 544.992 251.648C545.64 252.32 546.096 253.136 546.36 254.096C546.624 255.056 546.756 256.124 546.756 257.3V268.46C545.988 268.628 544.92 268.82 543.552 269.036C542.184 269.276 540.528 269.396 538.584 269.396C537.36 269.396 536.244 269.288 535.236 269.072C534.252 268.856 533.4 268.508 532.68 268.028C531.96 267.524 531.408 266.876 531.024 266.084C530.64 265.292 530.448 264.32 530.448 263.168C530.448 262.064 530.664 261.128 531.096 260.36C531.552 259.592 532.152 258.98 532.896 258.524C533.64 258.068 534.492 257.744 535.452 257.552C536.412 257.336 537.408 257.228 538.439 257.228C539.136 257.228 539.748 257.264 540.276 257.336C540.828 257.384 541.272 257.456 541.608 257.552V257.048C541.608 256.136 541.332 255.404 540.78 254.852C540.228 254.3 539.268 254.024 537.9 254.024C536.988 254.024 536.088 254.096 535.2 254.24C534.312 254.36 533.544 254.54 532.896 254.78L532.212 250.46C532.524 250.364 532.908 250.268 533.364 250.172C533.844 250.052 534.36 249.956 534.912 249.884C535.464 249.788 536.04 249.716 536.64 249.668C537.264 249.596 537.888 249.56 538.512 249.56ZM557.042 265.148C558.026 265.148 558.722 265.052 559.13 264.86C559.538 264.668 559.742 264.296 559.742 263.744C559.742 263.312 559.478 262.94 558.95 262.628C558.422 262.292 557.618 261.92 556.538 261.512C555.698 261.2 554.93 260.876 554.234 260.54C553.562 260.204 552.986 259.808 552.506 259.352C552.026 258.872 551.654 258.308 551.39 257.66C551.126 257.012 550.994 256.232 550.994 255.32C550.994 253.544 551.654 252.14 552.974 251.108C554.294 250.076 556.106 249.56 558.41 249.56C559.562 249.56 560.666 249.668 561.722 249.884C562.778 250.076 563.618 250.292 564.242 250.532L563.306 254.708C562.682 254.492 561.998 254.3 561.254 254.132C560.534 253.964 559.718 253.88 558.806 253.88C557.126 253.88 556.286 254.348 556.286 255.284C556.286 255.5 556.322 255.692 556.394 255.86C556.466 256.028 556.61 256.196 556.826 256.364C557.042 256.508 557.33 256.676 557.69 256.868C558.074 257.036 558.554 257.228 559.13 257.444C560.306 257.876 561.278 258.308 562.046 258.74C562.814 259.148 563.414 259.604 563.846 260.108C564.302 260.588 564.614 261.128 564.782 261.728C564.974 262.328 565.07 263.024 565.07 263.816C565.07 265.688 564.362 267.104 562.946 268.064C561.554 269.024 559.574 269.504 557.006 269.504C555.326 269.504 553.922 269.36 552.794 269.072C551.69 268.784 550.922 268.544 550.49 268.352L551.39 263.996C552.302 264.356 553.238 264.644 554.198 264.86C555.158 265.052 556.106 265.148 557.042 265.148ZM568.179 259.676C568.179 257.996 568.431 256.532 568.935 255.284C569.463 254.012 570.147 252.956 570.987 252.116C571.827 251.276 572.787 250.64 573.867 250.208C574.971 249.776 576.099 249.56 577.251 249.56C579.939 249.56 582.063 250.388 583.623 252.044C585.183 253.676 585.963 256.088 585.963 259.28C585.963 259.592 585.951 259.94 585.927 260.324C585.903 260.684 585.879 261.008 585.855 261.296H573.687C573.807 262.4 574.323 263.276 575.235 263.924C576.147 264.572 577.371 264.896 578.907 264.896C579.891 264.896 580.851 264.812 581.787 264.644C582.747 264.452 583.527 264.224 584.127 263.96L584.847 268.316C584.559 268.46 584.175 268.604 583.695 268.748C583.215 268.892 582.675 269.012 582.075 269.108C581.499 269.228 580.875 269.324 580.203 269.396C579.531 269.468 578.859 269.504 578.187 269.504C576.483 269.504 574.995 269.252 573.723 268.748C572.475 268.244 571.431 267.56 570.591 266.696C569.775 265.808 569.163 264.764 568.755 263.564C568.371 262.364 568.179 261.068 568.179 259.676ZM580.779 257.624C580.755 257.168 580.671 256.724 580.527 256.292C580.407 255.86 580.203 255.476 579.915 255.14C579.651 254.804 579.303 254.528 578.871 254.312C578.463 254.096 577.947 253.988 577.323 253.988C576.723 253.988 576.207 254.096 575.775 254.312C575.343 254.504 574.983 254.768 574.695 255.104C574.407 255.44 574.179 255.836 574.011 256.292C573.867 256.724 573.759 257.168 573.687 257.624H580.779ZM599.11 269V244.052H615.814V248.768H604.726V253.988H614.59V258.704H604.726V269H599.11ZM630.131 254.816C629.651 254.696 629.087 254.576 628.439 254.456C627.791 254.312 627.095 254.24 626.351 254.24C626.015 254.24 625.607 254.276 625.127 254.348C624.671 254.396 624.323 254.456 624.083 254.528V269H618.719V251.072C619.679 250.736 620.807 250.424 622.103 250.136C623.423 249.824 624.887 249.668 626.495 249.668C626.783 249.668 627.131 249.692 627.539 249.74C627.947 249.764 628.355 249.812 628.763 249.884C629.171 249.932 629.579 250.004 629.987 250.1C630.395 250.172 630.743 250.268 631.031 250.388L630.131 254.816ZM651.267 259.496C651.267 260.984 651.051 262.352 650.619 263.6C650.187 264.824 649.563 265.88 648.747 266.768C647.931 267.632 646.947 268.304 645.795 268.784C644.667 269.264 643.395 269.504 641.979 269.504C640.587 269.504 639.315 269.264 638.163 268.784C637.035 268.304 636.063 267.632 635.247 266.768C634.431 265.88 633.795 264.824 633.339 263.6C632.883 262.352 632.655 260.984 632.655 259.496C632.655 258.008 632.883 256.652 633.339 255.428C633.819 254.204 634.467 253.16 635.283 252.296C636.123 251.432 637.107 250.76 638.235 250.28C639.387 249.8 640.635 249.56 641.979 249.56C643.347 249.56 644.595 249.8 645.723 250.28C646.875 250.76 647.859 251.432 648.675 252.296C649.491 253.16 650.127 254.204 650.583 255.428C651.039 256.652 651.267 258.008 651.267 259.496ZM645.795 259.496C645.795 257.84 645.459 256.544 644.787 255.608C644.139 254.648 643.203 254.168 641.979 254.168C640.755 254.168 639.807 254.648 639.135 255.608C638.463 256.544 638.127 257.84 638.127 259.496C638.127 261.152 638.463 262.472 639.135 263.456C639.807 264.416 640.755 264.896 641.979 264.896C643.203 264.896 644.139 264.416 644.787 263.456C645.459 262.472 645.795 261.152 645.795 259.496ZM655.422 250.712C656.334 250.448 657.51 250.208 658.95 249.992C660.39 249.752 661.902 249.632 663.486 249.632C665.094 249.632 666.426 249.848 667.482 250.28C668.562 250.688 669.414 251.276 670.038 252.044C670.662 252.812 671.106 253.724 671.37 254.78C671.634 255.836 671.766 257.012 671.766 258.308V269H666.402V258.956C666.402 257.228 666.174 256.004 665.718 255.284C665.262 254.564 664.41 254.204 663.162 254.204C662.778 254.204 662.37 254.228 661.938 254.276C661.506 254.3 661.122 254.336 660.786 254.384V269H655.422V250.712ZM676.442 245.348L681.806 244.484V250.064H688.25V254.528H681.806V261.188C681.806 262.316 681.998 263.216 682.382 263.888C682.79 264.56 683.594 264.896 684.794 264.896C685.37 264.896 685.958 264.848 686.558 264.752C687.182 264.632 687.746 264.476 688.25 264.284L689.006 268.46C688.358 268.724 687.638 268.952 686.846 269.144C686.054 269.336 685.082 269.432 683.93 269.432C682.466 269.432 681.254 269.24 680.294 268.856C679.334 268.448 678.566 267.896 677.99 267.2C677.414 266.48 677.006 265.616 676.766 264.608C676.55 263.6 676.442 262.484 676.442 261.26V245.348ZM718.366 246.716C718.654 247.7 718.966 248.816 719.302 250.064C719.662 251.288 720.034 252.56 720.418 253.88C720.826 255.2 721.234 256.52 721.642 257.84C722.05 259.16 722.446 260.384 722.83 261.512C723.142 260.288 723.454 258.956 723.766 257.516C724.102 256.076 724.414 254.588 724.702 253.052C724.99 251.516 725.266 249.992 725.53 248.48C725.818 246.944 726.082 245.468 726.322 244.052H732.154C731.314 248.228 730.342 252.464 729.238 256.76C728.158 261.056 726.982 265.136 725.71 269H720.562C719.722 266.696 718.906 264.284 718.114 261.764C717.322 259.22 716.542 256.676 715.774 254.132C715.006 256.676 714.238 259.22 713.47 261.764C712.702 264.284 711.898 266.696 711.058 269H705.91C704.638 265.136 703.45 261.056 702.346 256.76C701.266 252.464 700.306 248.228 699.466 244.052H705.55C705.79 245.468 706.054 246.944 706.342 248.48C706.63 249.992 706.93 251.516 707.242 253.052C707.554 254.588 707.866 256.076 708.178 257.516C708.514 258.956 708.85 260.288 709.186 261.512C709.618 260.336 710.038 259.088 710.446 257.768C710.854 256.448 711.25 255.128 711.634 253.808C712.018 252.488 712.366 251.216 712.678 249.992C713.014 248.768 713.314 247.676 713.578 246.716H718.366ZM733.308 259.676C733.308 257.996 733.56 256.532 734.063 255.284C734.592 254.012 735.276 252.956 736.116 252.116C736.956 251.276 737.916 250.64 738.996 250.208C740.1 249.776 741.228 249.56 742.38 249.56C745.068 249.56 747.192 250.388 748.752 252.044C750.312 253.676 751.092 256.088 751.092 259.28C751.092 259.592 751.08 259.94 751.056 260.324C751.032 260.684 751.008 261.008 750.984 261.296H738.816C738.936 262.4 739.452 263.276 740.364 263.924C741.276 264.572 742.5 264.896 744.036 264.896C745.02 264.896 745.98 264.812 746.916 264.644C747.876 264.452 748.656 264.224 749.256 263.96L749.976 268.316C749.688 268.46 749.304 268.604 748.824 268.748C748.344 268.892 747.804 269.012 747.204 269.108C746.628 269.228 746.004 269.324 745.332 269.396C744.66 269.468 743.988 269.504 743.316 269.504C741.612 269.504 740.124 269.252 738.852 268.748C737.604 268.244 736.56 267.56 735.72 266.696C734.904 265.808 734.292 264.764 733.884 263.564C733.5 262.364 733.308 261.068 733.308 259.676ZM745.908 257.624C745.884 257.168 745.8 256.724 745.656 256.292C745.536 255.86 745.332 255.476 745.044 255.14C744.78 254.804 744.432 254.528 744 254.312C743.592 254.096 743.076 253.988 742.452 253.988C741.852 253.988 741.336 254.096 740.904 254.312C740.472 254.504 740.112 254.768 739.824 255.104C739.536 255.44 739.308 255.836 739.14 256.292C738.996 256.724 738.888 257.168 738.816 257.624H745.908ZM767.363 259.388C767.363 255.932 766.091 254.204 763.547 254.204C762.995 254.204 762.443 254.276 761.891 254.42C761.363 254.564 760.931 254.744 760.595 254.96V264.716C760.859 264.764 761.195 264.812 761.603 264.86C762.011 264.884 762.455 264.896 762.935 264.896C764.399 264.896 765.503 264.392 766.247 263.384C766.991 262.376 767.363 261.044 767.363 259.388ZM772.835 259.532C772.835 261.044 772.607 262.412 772.151 263.636C771.719 264.86 771.083 265.904 770.243 266.768C769.403 267.632 768.371 268.304 767.147 268.784C765.923 269.24 764.531 269.468 762.971 269.468C762.323 269.468 761.639 269.432 760.919 269.36C760.223 269.312 759.527 269.24 758.831 269.144C758.159 269.048 757.511 268.94 756.887 268.82C756.263 268.676 755.711 268.532 755.231 268.388V241.928L760.595 241.064V250.496C761.195 250.232 761.819 250.028 762.467 249.884C763.115 249.74 763.811 249.668 764.555 249.668C765.899 249.668 767.087 249.908 768.119 250.388C769.151 250.844 770.015 251.504 770.711 252.368C771.407 253.232 771.935 254.276 772.295 255.5C772.655 256.7 772.835 258.044 772.835 259.532Z" fill="#9B0B42"/>
<path d="M644.57 208.258V135.751H629.947V116.558H644.57V93.1001H665.896V116.558H682.956V135.751H665.896V208.258H644.57Z" fill="white"/>
<path d="M602.224 207.344C592.475 209.477 583.641 209.477 575.72 207.344C567.494 205.212 560.792 200.947 555.003 195.158C549.52 189.065 545.559 181.753 543.427 172.919C541.294 163.779 541.294 154.944 543.427 147.023C545.559 139.102 549.824 132.095 555.613 126.612C561.401 120.823 569.017 117.167 577.852 115.035C585.773 113.207 593.389 113.512 600.701 115.949C608.013 118.386 614.106 122.346 619.285 128.439C624.464 134.228 627.815 141.54 629.643 150.07L631.166 157.381L566.885 172.309C569.627 178.402 573.892 182.972 579.68 185.409C585.468 187.847 592.171 188.456 599.787 186.628C603.748 185.714 607.404 184.191 610.45 182.058C613.497 179.926 616.543 176.879 619.59 172.919L634.517 186.019C630.557 191.502 625.987 196.072 620.199 199.728C614.41 203.384 608.317 205.821 602.224 207.344ZM582.727 134.837C569.931 137.884 563.534 145.5 563.838 157.381L606.185 147.633L605.88 147.023C604.357 142.149 601.615 138.798 597.045 136.36C592.78 133.923 587.906 133.619 582.727 134.837Z" fill="white"/>
<path d="M731.09 208.258C722.56 208.258 714.943 206.735 708.241 203.993C701.539 201.251 696.055 197.291 692.094 192.112L707.327 179.621C710.983 183.277 714.943 186.019 719.208 187.846C723.778 189.37 728.348 190.284 732.918 190.284C736.573 190.284 739.62 189.37 741.753 187.846C743.885 186.323 745.104 183.886 745.104 181.144C745.104 178.707 744.19 176.574 742.057 175.051C739.925 173.528 734.745 172.005 726.825 169.872C714.943 166.826 706.413 162.865 701.538 157.686C697.273 153.116 695.141 147.328 695.141 140.626C695.141 135.142 696.664 130.572 700.015 126.307C703.366 122.347 707.632 118.995 713.115 116.558C718.599 114.121 724.387 113.207 730.785 113.207C738.097 113.207 745.104 114.426 751.501 116.863C757.899 119.3 763.383 122.956 767.648 127.221L754.548 141.235C751.197 138.188 747.541 135.751 743.276 133.619C739.011 131.486 735.05 130.572 731.394 130.572C722.864 130.572 718.599 133.314 718.599 139.102C718.599 141.844 720.122 143.977 722.559 145.805C724.997 147.328 730.176 149.46 738.706 151.593C749.978 154.335 757.899 158.295 762.469 162.865C766.429 166.826 768.562 172.309 768.562 179.012C768.562 184.495 767.038 189.37 763.687 193.94C760.336 198.205 756.071 201.861 750.587 204.298C744.19 207.04 738.097 208.258 731.09 208.258Z" fill="white"/>
<path d="M696.666 91.8814C699.712 91.8814 702.149 92.7954 704.282 95.2326C706.415 97.3651 707.329 100.412 707.329 103.763C707.329 106.505 706.719 108.942 705.501 111.379C704.282 113.816 702.454 115.949 700.017 118.081C697.58 119.909 695.143 121.433 692.096 122.346L687.831 117.167C690.573 115.949 692.705 114.426 694.533 112.902C696.057 111.074 696.97 109.856 696.97 108.637C696.97 107.723 696.666 107.114 696.057 106.505C695.447 105.895 694.838 105.286 693.924 104.677C692.401 103.458 691.487 102.544 690.877 101.63C690.268 100.716 689.964 99.8023 689.964 98.5837C689.964 96.7558 690.573 95.2326 691.791 94.014C692.705 92.4907 694.533 91.8814 696.666 91.8814Z" fill="#9B0B42"/>
<path d="M532.458 80H509V208.867H532.458V80Z" fill="white"/>
</svg>
